<mxfile host="app.diagrams.net" modified="2023-10-13T17:30:27.833Z" agent="Mozilla/5.0 (Macintosh; Intel Mac OS X 10.15; rv:109.0) Gecko/20100101 Firefox/118.0" version="21.8.0" etag="7QXzMTAPrRRTFV5RNFB_" type="github">
  <diagram name="Page-1" id="frZnuTy-sbe9E_lo1I7S">
    <mxGraphModel>
      <root>
        <mxCell id="0" />
        <mxCell id="1" parent="0" />
      </root>
    </mxGraphModel>
  </diagram>
</mxfile>
